<svg xmlns="http://www.w3.org/2000/svg" width="279" height="200" fill="none"><g clip-path="url(#a)"><rect width="279" height="200" fill="#F4D04E" rx="10"/><rect width="139" height="95" x="59.996" y="77.229" fill="#fff" rx="47.5" transform="rotate(-45 59.996 77.229)"/><rect width="139" height="95" x="26.055" y="77.229" fill="#111" rx="47.5" transform="rotate(-45 26.055 77.229)"/><path fill="#111" d="M206.864 208.536 423.4-8l67.175 67.175-216.536 216.536z"/><rect width="139" height="95" x="-7.886" y="77.229" fill="#fff" rx="47.5" transform="rotate(-45 -7.886 77.229)"/><rect width="204.19" height="270.554" fill="#111" rx="102.095" transform="scale(-1 1) rotate(45 -89.284 48.113)"/><path stroke="#fff" stroke-width="3" d="m-21.31-358 135.583 135.727c12.481 12.494 12.481 32.737 0 45.231L-73.544 10.975c-12.48 12.494-12.48 32.737 0 45.23L79.088 209"/><path stroke="#111" stroke-width="3" d="M41.965 71.219v23.334H65.3M108.08 51.773V28.44H84.745M74.846 38.338v46.67M182.364-38l60.873 60.873c12.497 12.496 12.497 32.758 0 45.254l-77.745 77.746c-12.497 12.496-12.497 32.758 0 45.254L235.364 261"/><path stroke="#111" stroke-width="3" d="m225.339 149.074-12.144 12.145 14.256 14.257v12.672h12.673l13.729 13.729 12.145-12.145M250.685 123.728l-12.145 12.145 14.257 14.257v12.673h12.673l13.729 13.729 12.145-12.145M276.031 98.383l-12.145 12.144 14.257 14.257v12.673h12.673l13.729 13.729 12.144-12.145"/><mask id="b" width="285" height="284" x="206" y="-8" maskUnits="userSpaceOnUse" style="mask-type:alpha"><path fill="#111" d="M206.864 208.536 423.4-8l67.175 67.175-216.536 216.536z"/></mask><g stroke="#fff" stroke-width="3" mask="url(#b)"><path d="m225.339 149.074-12.144 12.145 14.256 14.257v12.672h12.673l13.729 13.729 12.145-12.145M250.685 123.728l-12.145 12.145 14.257 14.257v12.673h12.673l13.729 13.729 12.145-12.145M276.031 98.383l-12.145 12.144 14.257 14.257v12.673h12.673l13.729 13.729 12.144-12.145"/></g></g><defs><clipPath id="a"><rect width="279" height="200" fill="#fff" rx="10"/></clipPath></defs></svg>